<svg width="63" height="71" viewBox="0 0 63 71" fill="none" xmlns="http://www.w3.org/2000/svg">
<path d="M59.322 38.8737C61.1805 38.8737 62.6871 37.365 62.6871 35.504C62.6871 33.6429 61.1805 32.1343 59.322 32.1343C57.4636 32.1343 55.957 33.6429 55.957 35.504C55.957 37.365 57.4636 38.8737 59.322 38.8737Z" fill="#0A0A0A"/>
<path d="M3.36512 38.8737C5.22362 38.8737 6.73022 37.365 6.73022 35.504C6.73022 33.6429 5.22362 32.1343 3.36512 32.1343C1.50661 32.1343 0 33.6429 0 35.504C0 37.365 1.50661 38.8737 3.36512 38.8737Z" fill="#0A0A0A"/>
<path d="M60.82 48.6367C59.8946 48.1017 58.8207 48.0576 57.9009 48.4271C57.6752 48.5044 57.4603 48.5595 57.2621 48.5871C54.4421 49.0613 52.096 46.5742 51.6994 43.8938C51.5121 42.46 50.686 41.1253 49.3423 40.3476C47.9708 39.5534 46.3737 39.5204 45.0242 40.1105C43.416 40.6455 41.8685 40.5131 40.4255 39.7575C40.04 39.5315 39.6655 39.2722 39.3129 38.9965C39.7976 37.9211 40.0675 36.7243 40.0675 35.467C40.0675 34.2094 39.8032 33.0459 39.3294 31.9814C39.6764 31.7112 40.04 31.4631 40.4199 31.2425C41.8629 30.4869 43.4105 30.3545 45.0188 30.8895C46.3681 31.4796 47.9652 31.4409 49.3367 30.6467C50.686 29.8692 51.5121 28.5291 51.694 27.0951C51.9308 25.5565 52.7348 24.1833 53.9024 23.2788C54.9985 22.4018 56.5295 22.0876 57.8899 22.5564C58.8096 22.9203 59.8836 22.8816 60.809 22.3467C62.4172 21.4148 62.9679 19.3576 62.0371 17.7472C61.1063 16.1369 59.052 15.5854 57.4438 16.5174C56.5186 17.0524 55.9458 17.9623 55.8025 18.944C55.7584 19.1811 55.6979 19.3908 55.6264 19.5782C54.624 22.2639 51.3029 23.0527 48.7859 22.0544C47.4531 21.4975 45.8835 21.547 44.5396 22.3247C43.1682 23.1189 42.3366 24.4866 42.1714 25.948C41.8299 27.6081 40.9432 28.8876 39.5662 29.7589C39.1807 29.9795 38.7787 30.1671 38.3711 30.3325C36.9612 28.4297 34.7858 27.1283 32.3018 26.8856C32.2357 26.4279 32.1971 25.9645 32.1971 25.4958C32.2632 23.8634 32.9241 22.457 34.1909 21.332C35.375 20.4551 36.1406 19.0543 36.1406 17.466C36.1406 15.8777 35.3971 14.521 34.2515 13.6441H34.257C33.0453 12.6735 32.2632 11.2892 32.065 9.82221C31.8556 8.43242 32.3515 6.94337 33.4363 6.00582C34.213 5.38814 34.7141 4.43956 34.7141 3.36966C34.7141 1.51111 33.2106 0 31.3491 0C29.4874 0 27.9839 1.50559 27.9839 3.36966C27.9839 4.43956 28.485 5.39366 29.2617 6.00582C29.4434 6.16576 29.5976 6.32017 29.7188 6.48012C31.5418 8.69162 30.5614 11.9675 28.4356 13.6496H28.441C27.2899 14.5265 26.552 15.9108 26.552 17.4714C26.552 19.0323 27.3174 20.4605 28.5015 21.3375C29.7684 22.4626 30.4293 23.8689 30.4954 25.5014C30.4954 25.9756 30.4512 26.45 30.3797 26.9187C27.9618 27.2221 25.8525 28.5291 24.4865 30.4152C24.0184 30.2331 23.5613 30.0236 23.1207 29.77C21.7439 28.8985 20.8571 27.619 20.5156 25.9591C20.3503 24.4976 19.5188 23.1298 18.1474 22.3358C16.798 21.5581 15.2284 21.5085 13.9011 22.0655C12.4526 22.628 10.8664 22.617 9.49504 22.06C8.18975 21.5526 7.14883 20.3778 6.87895 18.9661C6.73576 17.9845 6.16296 17.0743 5.23219 16.5395C3.62398 15.6074 1.56416 16.1644 0.638896 17.7748C-0.291881 19.3851 0.264376 21.4478 1.87258 22.3742C2.79785 22.9092 3.87183 22.9533 4.79159 22.5839C5.0174 22.5067 5.23219 22.4515 5.43046 22.4239C8.25034 21.9497 10.5966 24.4369 10.9931 27.1172C10.9931 27.1172 10.9931 27.1172 10.9931 27.1118C11.1804 28.5456 12.0065 29.8803 13.3503 30.6578C14.7217 31.452 16.3189 31.485 17.6682 30.8949C19.2764 30.3601 20.8241 30.4924 22.2671 31.2479C22.7077 31.5072 23.1262 31.7994 23.5227 32.1192C23.0877 33.1506 22.8508 34.2811 22.8508 35.467C22.8508 36.6527 23.0986 37.8273 23.5503 38.8751C23.1483 39.206 22.7242 39.5039 22.2725 39.7631C20.8295 40.5187 19.282 40.651 17.6738 40.116C16.3244 39.5259 14.7272 39.5645 13.3558 40.3587C12.0065 41.1362 11.1803 42.4765 10.9986 43.9104C10.7618 45.4491 9.95768 46.8224 8.79008 47.7267C7.69407 48.6036 6.16296 48.918 4.80261 48.4492C3.88285 48.0852 2.80886 48.1238 1.8836 48.6588C0.275395 49.5909 -0.275358 51.6479 0.655418 53.2583C1.58619 54.8686 3.6405 55.4201 5.24871 54.488C6.17398 53.9532 6.74677 53.0431 6.88996 52.0615C6.93402 51.8244 6.99461 51.6148 7.0662 51.4273C8.06859 48.7415 11.3896 47.9529 13.9066 48.951C15.2394 49.5081 16.8091 49.4584 18.153 48.6809C19.5242 47.8867 20.356 46.5189 20.5212 45.0574C20.8627 43.3975 21.7493 42.1235 23.1262 41.2465C23.5778 40.9929 24.0459 40.7723 24.5307 40.5904C25.8965 42.4379 27.9839 43.7228 30.3742 44.0207C30.4512 44.5116 30.4954 45.0079 30.4954 45.5042C30.4293 47.1366 29.7684 48.543 28.5015 49.668C27.3174 50.5449 26.552 51.9457 26.552 53.534C26.552 55.1223 27.2955 56.479 28.441 57.3559H28.4356C29.6472 58.3265 30.4293 59.7108 30.6275 61.1777C30.8368 62.5675 30.3411 64.0567 29.2561 64.9942C28.4796 65.6119 27.9783 66.5604 27.9783 67.6303C27.9783 69.4889 29.482 71 31.3435 71C33.2051 71 34.7086 69.4945 34.7086 67.6303C34.7086 66.5604 34.2075 65.6119 33.4309 64.9942C33.2491 64.8342 33.095 64.6798 32.9738 64.5198C31.1507 62.3084 32.131 59.0325 34.257 57.3503H34.2515C35.4025 56.4736 36.1406 55.0892 36.1406 53.5286C36.1406 51.9677 35.375 50.5394 34.1909 49.6625C32.9241 48.5374 32.2632 47.1311 32.1971 45.4986C32.1971 45.0079 32.2413 44.5224 32.3183 44.0428C34.7747 43.8001 36.9281 42.5206 38.3381 40.6455C38.7622 40.8164 39.1753 41.0094 39.5718 41.2356C40.9487 42.107 41.8353 43.3864 42.1768 45.0465C42.342 46.508 43.1738 47.8756 44.5452 48.6698C45.8945 49.4474 47.4641 49.4971 48.7915 48.94C50.2399 48.3776 51.8261 48.3885 53.1975 48.9456C54.5028 49.453 55.5438 50.6276 55.8135 52.0395C55.9568 53.0211 56.5295 53.9311 57.4603 54.4661C59.0685 55.3982 61.1284 54.8411 62.0536 53.2307C62.979 51.6203 62.4282 49.5577 60.82 48.6312V48.6367Z" fill="#0A0A0A"/>
<path d="M43.6582 56.8429C42.05 57.775 41.4993 59.8321 42.4301 61.4425C43.3609 63.0529 45.4152 63.6044 47.0234 62.6723C48.6316 61.7402 49.1823 59.6832 48.2517 58.0728C47.3208 56.4624 45.2664 55.911 43.6582 56.8429Z" fill="#0A0A0A"/>
<path d="M19.034 14.1616C20.6423 13.2295 21.193 11.1724 20.2622 9.56206C19.3315 7.95168 17.2771 7.40018 15.6689 8.33221C14.0607 9.26426 13.51 11.3213 14.4408 12.9317C15.3715 14.5421 17.4258 15.0936 19.034 14.1616Z" fill="#0A0A0A"/>
<path d="M43.2774 13.9387C44.9023 14.8376 46.9511 14.253 47.8488 12.6261C48.7465 10.9992 48.1627 8.94761 46.538 8.04867C44.9132 7.14973 42.8644 7.73432 41.9667 9.36124C41.069 10.9882 41.6527 13.0397 43.2774 13.9387Z" fill="#0A0A0A"/>
<path d="M19.414 57.0628C17.7893 56.1639 15.7405 56.7484 14.8428 58.3755C13.9451 60.0024 14.5289 62.0539 16.1536 62.9528C17.7784 63.8517 19.8272 63.2672 20.7249 61.6403C21.6226 60.0133 21.0389 57.9617 19.414 57.0628Z" fill="#0A0A0A"/>
</svg>
